<svg width="48" height="49" viewBox="0 0 48 49" fill="none" xmlns="http://www.w3.org/2000/svg">
<path d="M29.647 22.5883H18.3529C17.5733 22.5883 16.9412 23.2204 16.9412 24V46.7765C16.9412 47.5562 17.5733 48.1883 18.3529 48.1883H29.647C30.4267 48.1883 31.0588 47.5562 31.0588 46.7765V24C31.0588 23.2204 30.4267 22.5883 29.647 22.5883ZM28.2353 45.3647H19.7647V25.4118H28.2353V45.3647Z" fill="white"/>
<path d="M46.5882 33.8823H35.2941C34.5144 33.8823 33.8823 34.5144 33.8823 35.2941V46.7764C33.8823 47.5561 34.5144 48.1882 35.2941 48.1882H46.5882C47.3679 48.1882 48 47.5561 48 46.7764V35.2941C48 34.5144 47.3679 33.8823 46.5882 33.8823ZM45.1764 45.3647H36.7059V36.7059H45.1764V45.3647Z" fill="white"/>
<path d="M12.7059 28.2354H1.41176C0.632094 28.2354 0 28.8674 0 29.6471V46.7765C0 47.5562 0.632094 48.1883 1.41176 48.1883H12.7059C13.4856 48.1883 14.1176 47.5562 14.1176 46.7765V29.6471C14.1176 28.8674 13.4856 28.2354 12.7059 28.2354ZM11.2941 45.3648H2.82353V31.0589H11.2941V45.3648Z" fill="white"/>
<path d="M27.8252 8.66042C28.6642 7.74005 29.1765 6.51699 29.1765 5.17647C29.1765 2.32216 26.8543 0 24 0C21.1457 0 18.8235 2.32216 18.8235 5.17647C18.8235 6.51699 19.3358 7.74005 20.1748 8.66042C18.231 9.91906 16.9412 12.1051 16.9412 14.5882V17.4118C16.9412 18.1914 17.5733 18.8235 18.3529 18.8235H29.647C30.4267 18.8235 31.0588 18.1914 31.0588 17.4118V14.5882C31.0588 12.1051 29.7689 9.91906 27.8252 8.66042ZM21.647 5.17647C21.647 3.87906 22.7026 2.82353 24 2.82353C25.2974 2.82353 26.3529 3.87906 26.3529 5.17647C26.3529 6.47388 25.2974 7.52941 24 7.52941C22.7026 7.52941 21.647 6.47388 21.647 5.17647ZM28.2353 16H19.7647V14.5882C19.7647 12.2529 21.6646 10.3529 24 10.3529C26.3353 10.3529 28.2353 12.2529 28.2353 14.5882V16Z" fill="white"/>
<path d="M10.884 14.3075C11.723 13.3871 12.2353 12.1641 12.2353 10.8236C12.2353 7.96926 9.91313 5.64709 7.05882 5.64709C4.20452 5.64709 1.88235 7.96926 1.88235 10.8236C1.88235 12.1641 2.39464 13.3871 3.2336 14.3075C1.28988 15.5662 0 17.7522 0 20.2353V23.0589C0 23.8385 0.632094 24.4706 1.41176 24.4706H12.7059C13.4856 24.4706 14.1176 23.8385 14.1176 23.0589V20.2353C14.1176 17.7522 12.8278 15.5662 10.884 14.3075ZM4.70588 10.8236C4.70588 9.52615 5.76141 8.47062 7.05882 8.47062C8.35624 8.47062 9.41177 9.52615 9.41177 10.8236C9.41177 12.121 8.35624 13.1765 7.05882 13.1765C5.76141 13.1765 4.70588 12.121 4.70588 10.8236ZM11.2941 21.6471H2.82353V20.2353C2.82353 17.9 4.72348 16 7.05882 16C9.39417 16 11.2941 17.9 11.2941 20.2353V21.6471Z" fill="white"/>
<path d="M44.7664 19.9545C45.6053 19.0341 46.1176 17.8111 46.1176 16.4705C46.1176 13.6162 43.7955 11.2941 40.9411 11.2941C38.0868 11.2941 35.7647 13.6162 35.7647 16.4705C35.7647 17.8111 36.277 19.0341 37.1159 19.9545C35.1722 21.2131 33.8823 23.3992 33.8823 25.8823V28.7058C33.8823 29.4855 34.5144 30.1176 35.2941 30.1176H46.5882C47.3679 30.1176 48 29.4855 48 28.7058V25.8823C48 23.3992 46.7101 21.2131 44.7664 19.9545ZM38.5882 16.4705C38.5882 15.1731 39.6437 14.1176 40.9411 14.1176C42.2386 14.1176 43.2941 15.1731 43.2941 16.4705C43.2941 17.768 42.2386 18.8235 40.9411 18.8235C39.6437 18.8235 38.5882 17.768 38.5882 16.4705ZM45.1764 27.2941H36.7059V25.8823C36.7059 23.547 38.6058 21.647 40.9411 21.647C43.2765 21.647 45.1764 23.547 45.1764 25.8823V27.2941Z" fill="white"/>
</svg>
