<svg width="48" height="48" viewBox="0 0 48 48" fill="none" xmlns="http://www.w3.org/2000/svg">
<g clip-path="url(#clip0_109_2020)">
<path d="M22.678 15.3684V18.1798C25.1583 18.1798 27.1765 20.1976 27.1765 22.678H29.9879C29.9879 18.6475 26.7085 15.3684 22.678 15.3684Z" fill="white"/>
<path d="M40.3407 28.3008H45.1688V17.0555H40.3407C40.0232 16.0591 39.6222 15.093 39.1417 14.1661L42.557 10.7509L34.6055 2.79895L31.1898 6.2146C30.2629 5.73376 29.2969 5.33313 28.3008 5.01562V0H17.0555V5.01233C16.0082 5.33972 15.0022 5.74658 14.076 6.21826L10.6571 2.79895L2.7052 10.7509L6.12085 14.1661C5.64001 15.093 5.23938 16.0591 4.92188 17.0555H0V28.3008H4.92188C5.23755 29.2917 5.63599 30.2531 6.11316 31.1755L2.58911 34.5985L10.6648 42.5493L14.076 39.1381C15.0022 39.6094 16.0082 40.0166 17.0552 40.3436V45.1688H28.3008V40.3407C29.7616 39.8756 31.1521 39.2318 32.4554 38.4188L42.0366 48L48 42.0366L38.4188 32.4558C39.2318 31.1521 39.8756 29.7616 40.3407 28.3008ZM25.4894 38.1881V42.3574H19.8666V38.1881L18.8075 37.9189C17.2544 37.5242 15.7819 36.9265 14.5496 36.1904L13.6091 35.629L10.649 38.5891L6.60974 34.6121L9.64197 31.6674L9.07178 30.713C7.57654 28.2089 7.27258 26.1262 7.0741 25.4894H2.8114V19.8666H7.0741C7.27258 19.2301 7.5769 17.1471 9.07178 14.6433L9.63354 13.7029L6.68115 10.7509L10.6571 6.7749L13.6091 9.72693C14.1731 9.43396 15.7625 8.21118 18.8075 7.43701L19.8666 7.16785V2.8114H25.4894V7.16785L26.5488 7.43701C29.3892 8.15918 31.0679 9.41858 31.6531 9.72693L34.6055 6.7749L38.5814 10.7509L35.629 13.7029L36.1904 14.6433C37.6857 17.1471 37.99 19.2305 38.1881 19.8666H42.3574V25.4894H38.1881C37.9845 26.1552 37.7047 28.0477 36.368 30.4047L34.3033 28.34C35.1401 26.629 35.6104 24.7075 35.6104 22.678C35.6104 15.5471 29.8088 9.74561 22.678 9.74561C15.5442 9.74561 9.65186 15.5358 9.65186 22.678C9.65186 29.8114 15.5343 35.6104 22.678 35.6104C24.7075 35.6104 26.629 35.1398 28.34 34.3033L30.4047 36.368C28.0415 37.708 26.1442 37.9878 25.4894 38.1881ZM22.678 32.7993C17.0457 32.7993 12.4633 28.2587 12.4633 22.678C12.4633 17.0973 17.0457 12.557 22.678 12.557C28.2587 12.557 32.7993 17.0973 32.7993 22.678C32.7993 28.2587 28.2587 32.7993 22.678 32.7993ZM32.7579 30.7701L39.8071 37.8197L37.8197 39.8071L30.7701 32.7579C31.5022 32.1691 32.1691 31.5022 32.7579 30.7701ZM42.0366 44.024L39.8075 41.7953L41.7953 39.8075L44.024 42.0366L42.0366 44.024Z" fill="white"/>
</g>
<defs>
<clipPath id="clip0_109_2020">
<rect width="48" height="48" fill="white"/>
</clipPath>
</defs>
</svg>
