<svg width="49" height="48" viewBox="0 0 49 48" fill="none" xmlns="http://www.w3.org/2000/svg">
<g clip-path="url(#clip0_109_2042)">
<path d="M13.5594 9.29954C13.9258 9.8401 14.1589 10.4994 14.2332 11.206C14.5144 13.8788 15.5708 15.9024 17.3728 17.2207C19.584 18.8381 22.3263 18.9032 23.8152 18.7871L26.4126 23.7999L33.6711 18.9957L33.3697 17.9947C32.6154 15.4894 31.0887 13.7084 29.9257 12.6459C33.6106 8.87504 33.6578 2.14772 33.6578 1.82991V0.7936L32.668 0.486756C32.5843 0.460881 30.5913 -0.145681 27.9659 0.033006C25.1234 0.2266 22.6034 1.2601 20.5774 3.04669C19.6402 1.89001 18.1206 0.845256 15.9369 0.999006C12.2167 1.25935 11.0247 4.78041 10.9143 6.60582L10.8472 7.71441L11.9101 8.03663C12.5725 8.23735 13.1274 8.66222 13.5594 9.29954ZM14.1739 5.18044C14.7459 4.03004 15.5661 3.84423 16.1331 3.80448C18.1422 3.66376 18.8627 5.54532 18.949 5.79526L19.6968 8.27504L21.3691 6.2596C23.075 4.20385 25.3267 3.05522 28.0617 2.84579C29.145 2.76291 30.1021 2.84879 30.7813 2.95332C30.5931 5.07788 29.8504 9.63104 26.9271 11.4859L25.0022 12.7011L26.9496 13.8748C26.9742 13.8899 29.1655 15.26 30.3177 17.8423L27.47 19.7271L25.8616 16.6232L25.3765 15.6774L24.3341 15.8918C24.3025 15.898 21.1412 16.5034 19.0214 14.9417C17.8942 14.1114 17.2242 12.7554 17.0304 10.9116C16.9076 9.74644 16.5125 8.64338 15.8875 7.72144C15.3534 6.93319 14.6816 6.30254 13.9087 5.85685C13.9733 5.6431 14.0594 5.41069 14.1739 5.18044Z" fill="white"/>
<path d="M44.392 10.5084C42.0646 10.5084 40.1711 12.4019 40.1711 14.7293V20.1052C39.7248 19.9476 39.2499 19.8656 38.7626 19.8656C37.6352 19.8656 36.5752 20.3047 35.778 21.102L24.613 32.2667L13.4483 21.102C12.651 20.3047 11.591 19.8656 10.4635 19.8656C9.97622 19.8656 9.50129 19.9476 9.05504 20.1052V14.7293C9.05504 12.4019 7.16157 10.5084 4.83413 10.5084C2.50669 10.5084 0.613037 12.4019 0.613037 14.7293V29.318L11.3596 42.8816V48H37.8665V42.8816L48.613 29.318V14.7293C48.613 12.4019 46.7195 10.5084 44.392 10.5084ZM23.2068 45.1875H14.1721V41.9026L3.42554 28.3389V14.7293C3.42554 13.9527 4.05741 13.3209 4.83404 13.3209C5.61066 13.3209 6.24244 13.9527 6.24244 14.7293V24.0724V24.0865C6.24244 25.214 6.68157 26.274 7.47882 27.0712L13.1554 32.7478L15.1441 30.7591L9.46754 25.0825C9.20147 24.8165 9.05504 24.4627 9.05504 24.0865C9.05504 24.0859 9.05504 24.0851 9.05504 24.0845V24.0785C9.0571 23.7053 9.20344 23.3548 9.46754 23.0907C9.7336 22.8246 10.0873 22.6782 10.4635 22.6782C10.8398 22.6782 11.1934 22.8247 11.4594 23.0907L23.2068 34.8379V45.1875ZM45.8005 28.3389L35.054 41.9026V45.1875H26.0193V34.8379L37.7667 23.0906C38.0327 22.8245 38.3863 22.6781 38.7625 22.6781C39.1388 22.6781 39.4925 22.8246 39.7585 23.0907C40.0226 23.3547 40.169 23.7052 40.171 24.0784V24.0845V24.0864C40.171 24.4626 40.0245 24.8164 39.7585 25.0824L34.082 30.759L36.0707 32.7477L41.7473 27.0711C42.5445 26.2739 42.9836 25.2139 42.9836 24.0864C42.9836 24.0816 42.9836 24.077 42.9836 24.0723V14.7292C42.9836 13.9526 43.6154 13.3208 44.392 13.3208C45.1687 13.3208 45.8005 13.9527 45.8005 14.7293V28.3389Z" fill="white"/>
</g>
<defs>
<clipPath id="clip0_109_2042">
<rect width="48" height="48" fill="white" transform="translate(0.613037)"/>
</clipPath>
</defs>
</svg>
