<svg width="48" height="48" viewBox="0 0 48 48" fill="none" xmlns="http://www.w3.org/2000/svg">
<g clip-path="url(#clip0_109_2014)">
<path d="M46.125 0H1.875C0.839355 0 0 0.839355 0 1.875V46.125C0 47.1606 0.839355 48 1.875 48H46.125C47.1606 48 48 47.1606 48 46.125V1.875C48 0.839355 47.1606 0 46.125 0ZM44.25 44.25H3.75V3.75H44.25V44.25ZM7.67432 12.8613C6.94189 12.1293 6.94189 10.942 7.67432 10.2096C8.40637 9.47754 9.59363 9.47754 10.3257 10.2096L11.5397 11.4236L15.5493 7.41431C16.2814 6.68188 17.4686 6.68188 18.2007 7.41431C18.9331 8.14673 18.9331 9.33362 18.2007 10.066L12.8657 15.401C12.1333 16.1334 10.946 16.1331 10.214 15.401L7.67432 12.8613ZM22.125 11.4078C22.125 10.3722 22.9644 9.53284 24 9.53284H39C40.0356 9.53284 40.875 10.3722 40.875 11.4078C40.875 12.4431 40.0356 13.2828 39 13.2828H24C22.9644 13.2828 22.125 12.4431 22.125 11.4078ZM7.67432 38.046C6.94189 37.3136 6.94189 36.1263 7.67432 35.3943C8.40637 34.6622 9.59363 34.6619 10.3257 35.3943L11.5397 36.6083L15.5493 32.599C16.2814 31.8666 17.4686 31.8666 18.2007 32.599C18.9331 33.3311 18.9331 34.5183 18.2007 35.2507L12.8657 40.5857C12.1333 41.3181 10.946 41.3177 10.214 40.5857L7.67432 38.046ZM22.125 36.5922C22.125 35.5569 22.9644 34.7172 24 34.7172H39C40.0356 34.7172 40.875 35.5569 40.875 36.5922C40.875 37.6278 40.0356 38.4672 39 38.4672H24C22.9644 38.4672 22.125 37.6278 22.125 36.5922ZM7.67432 25.4539C6.94189 24.7214 6.94189 23.5342 7.67432 22.8021C8.40637 22.0697 9.59363 22.0697 10.3257 22.8021L11.5397 24.0161L15.5493 20.0065C16.2814 19.2744 17.4686 19.2744 18.2007 20.0065C18.9331 20.7389 18.9331 21.9261 18.2007 22.6582L12.8657 27.9935C12.1333 28.7256 10.946 28.7256 10.214 27.9935L7.67432 25.4539ZM22.125 24C22.125 22.9644 22.9644 22.125 24 22.125H39C40.0356 22.125 40.875 22.9644 40.875 24C40.875 25.0356 40.0356 25.875 39 25.875H24C22.9644 25.875 22.125 25.0356 22.125 24Z" fill="white"/>
</g>
<defs>
<clipPath id="clip0_109_2014">
<rect width="48" height="48" fill="white"/>
</clipPath>
</defs>
</svg>
