<svg width="48" height="48" viewBox="0 0 48 48" fill="none" xmlns="http://www.w3.org/2000/svg">
<g clip-path="url(#clip0_109_2003)">
<path d="M48 48H35.8125V44.25H44.25V35.8125H48V48ZM12.1875 48H0V35.8125H3.75V44.25H12.1875V48ZM24 40.875C20.4988 40.875 17.0682 40.0155 13.8033 38.3203C11.2341 36.9863 8.76713 35.1358 6.47119 32.8202C2.59931 28.915 0.54375 25.0339 0.458063 24.8706L0.0016875 24L0.458063 23.1294C0.54375 22.9661 2.59931 19.085 6.47128 15.1799C8.76722 12.8642 11.2342 11.0138 13.8034 9.67978C17.0682 7.9845 20.4988 7.125 24 7.125C27.5012 7.125 30.9318 7.9845 34.1967 9.67969C36.7659 11.0137 39.2329 12.8642 41.5288 15.1798C45.4008 19.085 47.4563 22.9661 47.542 23.1293L47.9984 23.9999L47.542 24.8705C47.4563 25.0338 45.4008 28.9149 41.5288 32.82C39.2329 35.1357 36.7659 36.9862 34.1967 38.3201C30.9318 40.0155 27.5012 40.875 24 40.875ZM4.2855 23.9999C5.06813 25.2793 6.74288 27.7839 9.20681 30.2528C11.223 32.2732 13.3682 33.8766 15.5828 35.0187C18.2926 36.4163 21.1245 37.125 24 37.125C34.8551 37.125 41.8418 27.06 43.7145 24.0001C42.9319 22.7207 41.2571 20.2161 38.7932 17.7472C36.777 15.7268 34.6318 14.1234 32.4173 12.9813C29.7074 11.5837 26.8755 10.875 24 10.875C13.1449 10.875 6.15816 20.94 4.2855 23.9999ZM24 33.375C18.8305 33.375 14.625 29.1694 14.625 24C14.625 18.8306 18.8305 14.625 24 14.625C29.1695 14.625 33.375 18.8306 33.375 24C33.375 29.1694 29.1695 33.375 24 33.375ZM24 18.375C20.8984 18.375 18.375 20.8984 18.375 24C18.375 27.1016 20.8984 29.625 24 29.625C27.1016 29.625 29.625 27.1016 29.625 24C29.625 20.8984 27.1016 18.375 24 18.375ZM25.875 25.875H22.125V22.125H25.875V25.875ZM48 12.1875H44.25V3.75H35.8125V0H48V12.1875ZM3.75 12.1875H0V0H12.1875V3.75H3.75V12.1875Z" fill="white"/>
</g>
<defs>
<clipPath id="clip0_109_2003">
<rect width="48" height="48" fill="white"/>
</clipPath>
</defs>
</svg>
